<svg width="191" height="58" viewBox="0 0 191 58" fill="none" xmlns="http://www.w3.org/2000/svg">
<rect width="190.263" height="58" rx="5" fill="#1D2023"/>
<path d="M126.296 37.24C124.968 37.24 123.696 36.976 122.48 36.448C121.264 35.904 120.192 35.128 119.264 34.12L120.488 32.848C121.352 33.776 122.272 34.472 123.248 34.936C124.24 35.4 125.28 35.632 126.368 35.632C127.248 35.632 128.024 35.496 128.696 35.224C129.384 34.936 129.92 34.544 130.304 34.048C130.688 33.536 130.88 32.96 130.88 32.32C130.88 31.456 130.576 30.792 129.968 30.328C129.376 29.864 128.392 29.52 127.016 29.296L124.592 28.912C122.976 28.64 121.784 28.16 121.016 27.472C120.248 26.784 119.864 25.848 119.864 24.664C119.864 23.736 120.112 22.92 120.608 22.216C121.104 21.512 121.792 20.968 122.672 20.584C123.568 20.184 124.6 19.984 125.768 19.984C126.952 19.984 128.112 20.176 129.248 20.56C130.4 20.944 131.448 21.496 132.392 22.216L131.336 23.656C129.496 22.264 127.616 21.568 125.696 21.568C124.896 21.568 124.192 21.696 123.584 21.952C122.976 22.192 122.504 22.536 122.168 22.984C121.832 23.416 121.664 23.928 121.664 24.52C121.664 25.304 121.928 25.904 122.456 26.32C122.984 26.736 123.856 27.04 125.072 27.232L127.472 27.616C129.312 27.92 130.648 28.44 131.48 29.176C132.312 29.896 132.728 30.912 132.728 32.224C132.728 33.2 132.456 34.072 131.912 34.84C131.368 35.592 130.608 36.184 129.632 36.616C128.672 37.032 127.56 37.24 126.296 37.24ZM135.055 42.136C134.831 42.136 134.615 42.12 134.407 42.088C134.215 42.072 134.055 42.048 133.927 42.016V40.408C134.199 40.472 134.535 40.504 134.935 40.504C135.991 40.504 136.791 39.88 137.335 38.632L138.055 36.976L133.159 24.976H135.127L139.015 34.84L143.215 24.976H145.135L139.135 38.872C138.799 39.64 138.439 40.264 138.055 40.744C137.671 41.224 137.231 41.576 136.735 41.8C136.255 42.024 135.695 42.136 135.055 42.136ZM146.785 37V24.976H148.561V26.392C149.505 25.288 150.769 24.736 152.353 24.736C153.265 24.736 154.065 24.936 154.753 25.336C155.457 25.72 156.001 26.264 156.385 26.968C156.785 27.656 156.985 28.464 156.985 29.392V37H155.233V29.752C155.233 28.68 154.929 27.84 154.321 27.232C153.729 26.608 152.913 26.296 151.873 26.296C151.153 26.296 150.513 26.456 149.953 26.776C149.393 27.096 148.929 27.552 148.561 28.144V37H146.785ZM165.525 37.216C164.389 37.216 163.357 36.944 162.429 36.4C161.501 35.84 160.765 35.088 160.221 34.144C159.677 33.2 159.405 32.144 159.405 30.976C159.405 29.808 159.677 28.76 160.221 27.832C160.765 26.888 161.501 26.136 162.429 25.576C163.357 25.016 164.389 24.736 165.525 24.736C166.405 24.736 167.253 24.904 168.069 25.24C168.885 25.56 169.605 26.024 170.229 26.632L169.101 27.928C168.621 27.416 168.069 27.032 167.445 26.776C166.837 26.504 166.205 26.368 165.549 26.368C164.733 26.368 163.989 26.576 163.317 26.992C162.661 27.392 162.133 27.944 161.733 28.648C161.349 29.336 161.157 30.112 161.157 30.976C161.157 31.84 161.349 32.624 161.733 33.328C162.133 34.032 162.669 34.592 163.341 35.008C164.013 35.408 164.757 35.608 165.573 35.608C166.229 35.608 166.845 35.48 167.421 35.224C168.013 34.968 168.565 34.592 169.077 34.096L170.181 35.296C169.541 35.904 168.821 36.376 168.021 36.712C167.221 37.048 166.389 37.216 165.525 37.216Z" fill="#FFFDFA"/>
<path d="M24 16H100V42H24V16Z" fill="#368CDC" fill-opacity="0.34"/>
<path d="M36.547 37.216C35.315 37.216 34.371 36.936 33.715 36.376C33.075 35.8 32.755 34.96 32.755 33.856V26.92H30.163V24.712H32.755V21.568L35.371 20.968V24.712H38.947V26.92H35.371V33.28C35.371 33.888 35.507 34.32 35.779 34.576C36.051 34.832 36.507 34.96 37.147 34.96C37.467 34.96 37.755 34.944 38.011 34.912C38.283 34.864 38.579 34.784 38.899 34.672V36.88C38.579 36.992 38.195 37.072 37.747 37.12C37.299 37.184 36.899 37.216 36.547 37.216ZM46.426 37.216C45.226 37.216 44.13 36.936 43.138 36.376C42.162 35.816 41.386 35.056 40.81 34.096C40.234 33.12 39.946 32.04 39.946 30.856C39.946 29.672 40.218 28.6 40.762 27.64C41.322 26.68 42.074 25.92 43.018 25.36C43.962 24.784 45.01 24.496 46.162 24.496C47.298 24.496 48.314 24.784 49.21 25.36C50.122 25.936 50.834 26.712 51.346 27.688C51.874 28.664 52.138 29.768 52.138 31V31.72H42.61C42.738 32.344 42.978 32.904 43.33 33.4C43.698 33.896 44.162 34.288 44.722 34.576C45.282 34.848 45.89 34.984 46.546 34.984C47.138 34.984 47.698 34.896 48.226 34.72C48.754 34.544 49.202 34.288 49.57 33.952L51.25 35.56C50.53 36.136 49.778 36.56 48.994 36.832C48.226 37.088 47.37 37.216 46.426 37.216ZM42.61 29.776H49.546C49.434 29.184 49.21 28.656 48.874 28.192C48.554 27.728 48.154 27.368 47.674 27.112C47.194 26.84 46.674 26.704 46.114 26.704C45.522 26.704 44.978 26.832 44.482 27.088C44.002 27.344 43.594 27.704 43.258 28.168C42.938 28.632 42.722 29.168 42.61 29.776ZM54.3501 37V20.2L56.9661 19.72V37H54.3501ZM59.7408 37V20.2L62.3568 19.72V37H59.7408ZM69.9794 37.24C68.9394 37.24 68.1394 36.992 67.5794 36.496C67.0194 36 66.7394 35.28 66.7394 34.336V26.488H64.1474V24.976H66.7394V21.928L68.4914 21.472V24.976H72.1154V26.488H68.4914V33.88C68.4914 34.52 68.6354 34.984 68.9234 35.272C69.2114 35.544 69.6834 35.68 70.3394 35.68C70.6754 35.68 70.9714 35.656 71.2274 35.608C71.4994 35.56 71.7874 35.48 72.0914 35.368V36.928C71.7874 37.04 71.4434 37.12 71.0594 37.168C70.6914 37.216 70.3314 37.24 69.9794 37.24ZM77.809 37.216C76.929 37.216 76.153 37.064 75.481 36.76C74.825 36.456 74.305 36.032 73.921 35.488C73.553 34.944 73.369 34.312 73.369 33.592C73.369 32.456 73.801 31.56 74.665 30.904C75.529 30.248 76.697 29.92 78.169 29.92C79.465 29.92 80.641 30.192 81.697 30.736V29.152C81.697 28.192 81.425 27.472 80.881 26.992C80.337 26.496 79.545 26.248 78.505 26.248C77.913 26.248 77.313 26.336 76.705 26.512C76.113 26.672 75.457 26.936 74.737 27.304L74.065 25.936C74.929 25.52 75.729 25.216 76.465 25.024C77.201 24.832 77.937 24.736 78.673 24.736C80.193 24.736 81.361 25.096 82.177 25.816C83.009 26.536 83.425 27.568 83.425 28.912V37H81.697V35.824C81.153 36.288 80.553 36.64 79.897 36.88C79.257 37.104 78.561 37.216 77.809 37.216ZM75.073 33.544C75.073 34.216 75.353 34.768 75.913 35.2C76.489 35.616 77.225 35.824 78.121 35.824C78.841 35.824 79.497 35.712 80.089 35.488C80.681 35.264 81.217 34.912 81.697 34.432V32.176C81.201 31.84 80.673 31.6 80.113 31.456C79.553 31.296 78.921 31.216 78.217 31.216C77.257 31.216 76.489 31.432 75.913 31.864C75.353 32.28 75.073 32.84 75.073 33.544ZM86.392 37V24.976H88.168V37H86.392ZM87.28 22.672C86.96 22.672 86.68 22.552 86.44 22.312C86.2 22.072 86.08 21.792 86.08 21.472C86.08 21.136 86.2 20.856 86.44 20.632C86.68 20.392 86.96 20.272 87.28 20.272C87.616 20.272 87.896 20.392 88.12 20.632C88.36 20.856 88.48 21.136 88.48 21.472C88.48 21.792 88.36 22.072 88.12 22.312C87.896 22.552 87.616 22.672 87.28 22.672ZM91.1967 37V20.2L92.9727 19.792V37H91.1967Z" fill="#E7EAF2"/>
<rect x="23.97" y="43" width="1.025" height="29" rx="0.5125" transform="rotate(-180 23.97 43)" fill="#5896F4"/>
<ellipse cx="23.4575" cy="12.5" rx="2.5625" ry="2.5" transform="rotate(-180 23.4575 12.5)" fill="#5896F4"/>
<rect x="100.05" y="15" width="1.025" height="29" rx="0.5125" fill="#5896F4"/>
<ellipse cx="100.562" cy="45.5" rx="2.5625" ry="2.5" fill="#5896F4"/>
<mask id="mask0_8_101" style="mask-type:alpha" maskUnits="userSpaceOnUse" x="0" y="0" width="191" height="58">
<rect width="190.263" height="58" rx="5" fill="#1D2023"/>
</mask>
<g mask="url(#mask0_8_101)">
<path d="M10.2 34.5C10.2 33.2297 11.2297 32.2 12.5 32.2C13.7703 32.2 14.8 33.2297 14.8 34.5C14.8 35.7703 13.7703 36.8 12.5 36.8C11.2297 36.8 10.2 35.7703 10.2 34.5Z" stroke="#646261" stroke-width="0.4"/>
<path d="M-0.800008 34.5C-0.800008 33.2297 0.229737 32.2 1.49999 32.2C2.77025 32.2 3.79999 33.2297 3.79999 34.5C3.79999 35.7703 2.77025 36.8 1.49999 36.8C0.229737 36.8 -0.800008 35.7703 -0.800008 34.5Z" stroke="#646261" stroke-width="0.4"/>
<path d="M109.2 34.5C109.2 33.2297 110.23 32.2 111.5 32.2C112.77 32.2 113.8 33.2297 113.8 34.5C113.8 35.7703 112.77 36.8 111.5 36.8C110.23 36.8 109.2 35.7703 109.2 34.5Z" stroke="#646261" stroke-width="0.4"/>
<path d="M186.2 33.5C186.2 32.2297 187.23 31.2 188.5 31.2C189.77 31.2 190.8 32.2297 190.8 33.5C190.8 34.7703 189.77 35.8 188.5 35.8C187.23 35.8 186.2 34.7703 186.2 33.5Z" stroke="#646261" stroke-width="0.4"/>
<path d="M175.2 33.5C175.2 32.2297 176.23 31.2 177.5 31.2C178.77 31.2 179.8 32.2297 179.8 33.5C179.8 34.7703 178.77 35.8 177.5 35.8C176.23 35.8 175.2 34.7703 175.2 33.5Z" stroke="#646261" stroke-width="0.4"/>
<ellipse cx="12.5" cy="23.5" rx="2.5" ry="2.5" transform="rotate(-180 12.5 23.5)" fill="#FFFDFA"/>
<path d="M-0.800008 23.5C-0.800008 22.2297 0.229737 21.2 1.49999 21.2C2.77025 21.2 3.79999 22.2297 3.79999 23.5C3.79999 24.7703 2.77025 25.8 1.49999 25.8C0.229737 25.8 -0.800008 24.7703 -0.800008 23.5Z" stroke="#646261" stroke-width="0.4"/>
<ellipse cx="111.5" cy="23.5" rx="2.5" ry="2.5" transform="rotate(-180 111.5 23.5)" fill="#FFFDFA"/>
<path d="M175.2 23.5C175.2 22.2297 176.23 21.2 177.5 21.2C178.77 21.2 179.8 22.2297 179.8 23.5C179.8 24.7703 178.77 25.8 177.5 25.8C176.23 25.8 175.2 24.7703 175.2 23.5Z" stroke="#646261" stroke-width="0.4"/>
<path d="M186.2 23.5C186.2 22.2297 187.23 21.2 188.5 21.2C189.77 21.2 190.8 22.2297 190.8 23.5C190.8 24.7703 189.77 25.8 188.5 25.8C187.23 25.8 186.2 24.7703 186.2 23.5Z" stroke="#646261" stroke-width="0.4"/>
<path d="M98.2 12.5C98.2 11.2297 99.2298 10.2 100.5 10.2C101.77 10.2 102.8 11.2297 102.8 12.5C102.8 13.7703 101.77 14.8 100.5 14.8C99.2298 14.8 98.2 13.7703 98.2 12.5Z" stroke="#646261" stroke-width="0.4"/>
<path d="M87.2 12.5C87.2 11.2297 88.2297 10.2 89.5 10.2C90.7703 10.2 91.8 11.2297 91.8 12.5C91.8 13.7703 90.7703 14.8 89.5 14.8C88.2297 14.8 87.2 13.7703 87.2 12.5Z" stroke="#646261" stroke-width="0.4"/>
<path d="M76.2 12.5C76.2 11.2297 77.2297 10.2 78.5 10.2C79.7703 10.2 80.8 11.2297 80.8 12.5C80.8 13.7703 79.7703 14.8 78.5 14.8C77.2297 14.8 76.2 13.7703 76.2 12.5Z" stroke="#646261" stroke-width="0.4"/>
<path d="M65.2 12.5C65.2 11.2297 66.2297 10.2 67.5 10.2C68.7702 10.2 69.8 11.2297 69.8 12.5C69.8 13.7703 68.7702 14.8 67.5 14.8C66.2297 14.8 65.2 13.7703 65.2 12.5Z" stroke="#646261" stroke-width="0.4"/>
<path d="M54.2 12.5C54.2 11.2297 55.2297 10.2 56.5 10.2C57.7703 10.2 58.8 11.2297 58.8 12.5C58.8 13.7703 57.7703 14.8 56.5 14.8C55.2297 14.8 54.2 13.7703 54.2 12.5Z" stroke="#646261" stroke-width="0.4"/>
<ellipse cx="45.5" cy="12.5" rx="2.5" ry="2.5" transform="rotate(-180 45.5 12.5)" fill="#FFFDFA"/>
<path d="M32.2 12.5C32.2 11.2297 33.2297 10.2 34.5 10.2C35.7703 10.2 36.8 11.2297 36.8 12.5C36.8 13.7703 35.7703 14.8 34.5 14.8C33.2297 14.8 32.2 13.7703 32.2 12.5Z" stroke="#646261" stroke-width="0.4"/>
<path d="M10.2 12.5C10.2 11.2297 11.2297 10.2 12.5 10.2C13.7703 10.2 14.8 11.2297 14.8 12.5C14.8 13.7703 13.7703 14.8 12.5 14.8C11.2297 14.8 10.2 13.7703 10.2 12.5Z" stroke="#646261" stroke-width="0.4"/>
<path d="M-0.800008 12.5C-0.800008 11.2297 0.229737 10.2 1.49999 10.2C2.77025 10.2 3.79999 11.2297 3.79999 12.5C3.79999 13.7703 2.77025 14.8 1.49999 14.8C0.229737 14.8 -0.800008 13.7703 -0.800008 12.5Z" stroke="#646261" stroke-width="0.4"/>
<path d="M109.2 12.5C109.2 11.2297 110.23 10.2 111.5 10.2C112.77 10.2 113.8 11.2297 113.8 12.5C113.8 13.7703 112.77 14.8 111.5 14.8C110.23 14.8 109.2 13.7703 109.2 12.5Z" stroke="#646261" stroke-width="0.4"/>
<path d="M120.2 12.5C120.2 11.2297 121.23 10.2 122.5 10.2C123.77 10.2 124.8 11.2297 124.8 12.5C124.8 13.7703 123.77 14.8 122.5 14.8C121.23 14.8 120.2 13.7703 120.2 12.5Z" stroke="#646261" stroke-width="0.4"/>
<path d="M131.2 12.5C131.2 11.2297 132.23 10.2 133.5 10.2C134.77 10.2 135.8 11.2297 135.8 12.5C135.8 13.7703 134.77 14.8 133.5 14.8C132.23 14.8 131.2 13.7703 131.2 12.5Z" stroke="#646261" stroke-width="0.4"/>
<ellipse cx="144.5" cy="12.5" rx="2.5" ry="2.5" transform="rotate(-180 144.5 12.5)" fill="#FFFDFA"/>
<path d="M153.2 12.5C153.2 11.2297 154.23 10.2 155.5 10.2C156.77 10.2 157.8 11.2297 157.8 12.5C157.8 13.7703 156.77 14.8 155.5 14.8C154.23 14.8 153.2 13.7703 153.2 12.5Z" stroke="#646261" stroke-width="0.4"/>
<path d="M164.2 12.5C164.2 11.2297 165.23 10.2 166.5 10.2C167.77 10.2 168.8 11.2297 168.8 12.5C168.8 13.7703 167.77 14.8 166.5 14.8C165.23 14.8 164.2 13.7703 164.2 12.5Z" stroke="#646261" stroke-width="0.4"/>
<path d="M175.2 12.5C175.2 11.2297 176.23 10.2 177.5 10.2C178.77 10.2 179.8 11.2297 179.8 12.5C179.8 13.7703 178.77 14.8 177.5 14.8C176.23 14.8 175.2 13.7703 175.2 12.5Z" stroke="#646261" stroke-width="0.4"/>
<ellipse cx="188.5" cy="12.5" rx="2.5" ry="2.5" transform="rotate(-180 188.5 12.5)" fill="#FFFDFA"/>
<ellipse cx="100.5" cy="1.5" rx="2.5" ry="2.5" transform="rotate(-180 100.5 1.5)" fill="#FFFDFA"/>
<path d="M87.2 1.5C87.2 0.229745 88.2297 -0.800001 89.5 -0.8C90.7703 -0.8 91.8 0.229745 91.8 1.5C91.8 2.77025 90.7703 3.8 89.5 3.8C88.2297 3.8 87.2 2.77025 87.2 1.5Z" stroke="#646261" stroke-width="0.4"/>
<path d="M76.2 1.5C76.2 0.229745 77.2297 -0.800001 78.5 -0.8C79.7703 -0.8 80.8 0.229745 80.8 1.5C80.8 2.77025 79.7703 3.8 78.5 3.8C77.2297 3.8 76.2 2.77025 76.2 1.5Z" stroke="#646261" stroke-width="0.4"/>
<path d="M65.2 1.5C65.2 0.229745 66.2297 -0.800001 67.5 -0.8C68.7702 -0.8 69.8 0.229745 69.8 1.5C69.8 2.77025 68.7702 3.8 67.5 3.8C66.2297 3.8 65.2 2.77025 65.2 1.5Z" stroke="#646261" stroke-width="0.4"/>
<path d="M54.2 1.5C54.2 0.229745 55.2297 -0.800001 56.5 -0.8C57.7703 -0.8 58.8 0.229745 58.8 1.5C58.8 2.77025 57.7703 3.8 56.5 3.8C55.2297 3.8 54.2 2.77025 54.2 1.5Z" stroke="#646261" stroke-width="0.4"/>
<path d="M43.2 1.5C43.2 0.229745 44.2297 -0.800001 45.5 -0.8C46.7703 -0.8 47.8 0.229745 47.8 1.5C47.8 2.77025 46.7703 3.8 45.5 3.8C44.2297 3.8 43.2 2.77025 43.2 1.5Z" stroke="#646261" stroke-width="0.4"/>
<path d="M32.2 1.5C32.2 0.229745 33.2297 -0.800001 34.5 -0.8C35.7703 -0.8 36.8 0.229745 36.8 1.5C36.8 2.77025 35.7703 3.8 34.5 3.8C33.2297 3.8 32.2 2.77025 32.2 1.5Z" stroke="#646261" stroke-width="0.4"/>
<path d="M21.2 1.5C21.2 0.229745 22.2297 -0.800001 23.5 -0.8C24.7703 -0.8 25.8 0.229745 25.8 1.5C25.8 2.77025 24.7703 3.8 23.5 3.8C22.2297 3.8 21.2 2.77025 21.2 1.5Z" stroke="#646261" stroke-width="0.4"/>
<ellipse cx="12.5" cy="1.5" rx="2.5" ry="2.5" transform="rotate(-180 12.5 1.5)" fill="#FFFDFA"/>
<path d="M-0.800008 1.5C-0.800008 0.229745 0.229737 -0.800001 1.49999 -0.8C2.77025 -0.8 3.79999 0.229745 3.79999 1.5C3.79999 2.77025 2.77025 3.8 1.49999 3.8C0.229737 3.8 -0.800008 2.77025 -0.800008 1.5Z" stroke="#646261" stroke-width="0.4"/>
<path d="M109.2 1.5C109.2 0.229745 110.23 -0.800001 111.5 -0.8C112.77 -0.8 113.8 0.229745 113.8 1.5C113.8 2.77025 112.77 3.8 111.5 3.8C110.23 3.8 109.2 2.77025 109.2 1.5Z" stroke="#646261" stroke-width="0.4"/>
<path d="M120.2 1.5C120.2 0.229745 121.23 -0.800001 122.5 -0.8C123.77 -0.8 124.8 0.229745 124.8 1.5C124.8 2.77025 123.77 3.8 122.5 3.8C121.23 3.8 120.2 2.77025 120.2 1.5Z" stroke="#646261" stroke-width="0.4"/>
<path d="M131.2 1.5C131.2 0.229745 132.23 -0.800001 133.5 -0.8C134.77 -0.8 135.8 0.229745 135.8 1.5C135.8 2.77025 134.77 3.8 133.5 3.8C132.23 3.8 131.2 2.77025 131.2 1.5Z" stroke="#646261" stroke-width="0.4"/>
<path d="M142.2 1.5C142.2 0.229745 143.23 -0.800001 144.5 -0.8C145.77 -0.8 146.8 0.229745 146.8 1.5C146.8 2.77025 145.77 3.8 144.5 3.8C143.23 3.8 142.2 2.77025 142.2 1.5Z" stroke="#646261" stroke-width="0.4"/>
<path d="M153.2 1.5C153.2 0.229745 154.23 -0.800001 155.5 -0.8C156.77 -0.8 157.8 0.229745 157.8 1.5C157.8 2.77025 156.77 3.8 155.5 3.8C154.23 3.8 153.2 2.77025 153.2 1.5Z" stroke="#646261" stroke-width="0.4"/>
<path d="M164.2 1.5C164.2 0.229745 165.23 -0.800001 166.5 -0.8C167.77 -0.8 168.8 0.229745 168.8 1.5C168.8 2.77025 167.77 3.8 166.5 3.8C165.23 3.8 164.2 2.77025 164.2 1.5Z" stroke="#646261" stroke-width="0.4"/>
<ellipse cx="177.5" cy="1.5" rx="2.5" ry="2.5" transform="rotate(-180 177.5 1.5)" fill="#FFFDFA"/>
<path d="M186.2 1.5C186.2 0.229745 187.23 -0.800001 188.5 -0.8C189.77 -0.8 190.8 0.229745 190.8 1.5C190.8 2.77025 189.77 3.8 188.5 3.8C187.23 3.8 186.2 2.77025 186.2 1.5Z" stroke="#646261" stroke-width="0.4"/>
<path d="M87.2 45.5C87.2 44.2297 88.2297 43.2 89.5 43.2C90.7703 43.2 91.8 44.2297 91.8 45.5C91.8 46.7703 90.7703 47.8 89.5 47.8C88.2297 47.8 87.2 46.7703 87.2 45.5Z" stroke="#646261" stroke-width="0.4"/>
<path d="M76.2 45.5C76.2 44.2297 77.2297 43.2 78.5 43.2C79.7703 43.2 80.8 44.2297 80.8 45.5C80.8 46.7703 79.7703 47.8 78.5 47.8C77.2297 47.8 76.2 46.7703 76.2 45.5Z" stroke="#646261" stroke-width="0.4"/>
<path d="M65.2 45.5C65.2 44.2297 66.2297 43.2 67.5 43.2C68.7702 43.2 69.8 44.2297 69.8 45.5C69.8 46.7703 68.7702 47.8 67.5 47.8C66.2297 47.8 65.2 46.7703 65.2 45.5Z" stroke="#646261" stroke-width="0.4"/>
<path d="M54.2 45.5C54.2 44.2297 55.2297 43.2 56.5 43.2C57.7703 43.2 58.8 44.2297 58.8 45.5C58.8 46.7703 57.7703 47.8 56.5 47.8C55.2297 47.8 54.2 46.7703 54.2 45.5Z" stroke="#646261" stroke-width="0.4"/>
<path d="M43.2 45.5C43.2 44.2297 44.2297 43.2 45.5 43.2C46.7703 43.2 47.8 44.2297 47.8 45.5C47.8 46.7703 46.7703 47.8 45.5 47.8C44.2297 47.8 43.2 46.7703 43.2 45.5Z" stroke="#646261" stroke-width="0.4"/>
<path d="M32.2 45.5C32.2 44.2297 33.2297 43.2 34.5 43.2C35.7703 43.2 36.8 44.2297 36.8 45.5C36.8 46.7703 35.7703 47.8 34.5 47.8C33.2297 47.8 32.2 46.7703 32.2 45.5Z" stroke="#646261" stroke-width="0.4"/>
<path d="M21.2 45.5C21.2 44.2297 22.2297 43.2 23.5 43.2C24.7703 43.2 25.8 44.2297 25.8 45.5C25.8 46.7703 24.7703 47.8 23.5 47.8C22.2297 47.8 21.2 46.7703 21.2 45.5Z" stroke="#646261" stroke-width="0.4"/>
<path d="M10.2 45.5C10.2 44.2297 11.2297 43.2 12.5 43.2C13.7703 43.2 14.8 44.2297 14.8 45.5C14.8 46.7703 13.7703 47.8 12.5 47.8C11.2297 47.8 10.2 46.7703 10.2 45.5Z" stroke="#646261" stroke-width="0.4"/>
<ellipse cx="1.49999" cy="45.5" rx="2.5" ry="2.5" transform="rotate(-180 1.49999 45.5)" fill="#FFFDFA"/>
<path d="M109.2 45.5C109.2 44.2297 110.23 43.2 111.5 43.2C112.77 43.2 113.8 44.2297 113.8 45.5C113.8 46.7703 112.77 47.8 111.5 47.8C110.23 47.8 109.2 46.7703 109.2 45.5Z" stroke="#646261" stroke-width="0.4"/>
<path d="M120.2 45.5C120.2 44.2297 121.23 43.2 122.5 43.2C123.77 43.2 124.8 44.2297 124.8 45.5C124.8 46.7703 123.77 47.8 122.5 47.8C121.23 47.8 120.2 46.7703 120.2 45.5Z" stroke="#646261" stroke-width="0.4"/>
<path d="M131.2 45.5C131.2 44.2297 132.23 43.2 133.5 43.2C134.77 43.2 135.8 44.2297 135.8 45.5C135.8 46.7703 134.77 47.8 133.5 47.8C132.23 47.8 131.2 46.7703 131.2 45.5Z" stroke="#646261" stroke-width="0.4"/>
<path d="M142.2 45.5C142.2 44.2297 143.23 43.2 144.5 43.2C145.77 43.2 146.8 44.2297 146.8 45.5C146.8 46.7703 145.77 47.8 144.5 47.8C143.23 47.8 142.2 46.7703 142.2 45.5Z" stroke="#646261" stroke-width="0.4"/>
<path d="M153.2 45.5C153.2 44.2297 154.23 43.2 155.5 43.2C156.77 43.2 157.8 44.2297 157.8 45.5C157.8 46.7703 156.77 47.8 155.5 47.8C154.23 47.8 153.2 46.7703 153.2 45.5Z" stroke="#646261" stroke-width="0.4"/>
<path d="M164.2 45.5C164.2 44.2297 165.23 43.2 166.5 43.2C167.77 43.2 168.8 44.2297 168.8 45.5C168.8 46.7703 167.77 47.8 166.5 47.8C165.23 47.8 164.2 46.7703 164.2 45.5Z" stroke="#646261" stroke-width="0.4"/>
<path d="M175.2 45.5C175.2 44.2297 176.23 43.2 177.5 43.2C178.77 43.2 179.8 44.2297 179.8 45.5C179.8 46.7703 178.77 47.8 177.5 47.8C176.23 47.8 175.2 46.7703 175.2 45.5Z" stroke="#646261" stroke-width="0.4"/>
<ellipse cx="188.5" cy="45.5" rx="2.5" ry="2.5" transform="rotate(-180 188.5 45.5)" fill="#FFFDFA"/>
<path d="M98.2 56.5C98.2 55.2297 99.2298 54.2 100.5 54.2C101.77 54.2 102.8 55.2297 102.8 56.5C102.8 57.7703 101.77 58.8 100.5 58.8C99.2298 58.8 98.2 57.7703 98.2 56.5Z" stroke="#646261" stroke-width="0.4"/>
<path d="M87.2 56.5C87.2 55.2297 88.2297 54.2 89.5 54.2C90.7703 54.2 91.8 55.2297 91.8 56.5C91.8 57.7703 90.7703 58.8 89.5 58.8C88.2297 58.8 87.2 57.7703 87.2 56.5Z" stroke="#646261" stroke-width="0.4"/>
<path d="M76.2 56.5C76.2 55.2297 77.2297 54.2 78.5 54.2C79.7703 54.2 80.8 55.2297 80.8 56.5C80.8 57.7703 79.7703 58.8 78.5 58.8C77.2297 58.8 76.2 57.7703 76.2 56.5Z" stroke="#646261" stroke-width="0.4"/>
<ellipse cx="67.5" cy="56.5" rx="2.5" ry="2.5" transform="rotate(-180 67.5 56.5)" fill="#FFFDFA"/>
<path d="M54.2 56.5C54.2 55.2297 55.2297 54.2 56.5 54.2C57.7703 54.2 58.8 55.2297 58.8 56.5C58.8 57.7703 57.7703 58.8 56.5 58.8C55.2297 58.8 54.2 57.7703 54.2 56.5Z" stroke="#646261" stroke-width="0.4"/>
<path d="M43.2 56.5C43.2 55.2297 44.2297 54.2 45.5 54.2C46.7703 54.2 47.8 55.2297 47.8 56.5C47.8 57.7703 46.7703 58.8 45.5 58.8C44.2297 58.8 43.2 57.7703 43.2 56.5Z" stroke="#646261" stroke-width="0.4"/>
<path d="M32.2 56.5C32.2 55.2297 33.2297 54.2 34.5 54.2C35.7703 54.2 36.8 55.2297 36.8 56.5C36.8 57.7703 35.7703 58.8 34.5 58.8C33.2297 58.8 32.2 57.7703 32.2 56.5Z" stroke="#646261" stroke-width="0.4"/>
<path d="M21.2 56.5C21.2 55.2297 22.2297 54.2 23.5 54.2C24.7703 54.2 25.8 55.2297 25.8 56.5C25.8 57.7703 24.7703 58.8 23.5 58.8C22.2297 58.8 21.2 57.7703 21.2 56.5Z" stroke="#646261" stroke-width="0.4"/>
<path d="M10.2 56.5C10.2 55.2297 11.2297 54.2 12.5 54.2C13.7703 54.2 14.8 55.2297 14.8 56.5C14.8 57.7703 13.7703 58.8 12.5 58.8C11.2297 58.8 10.2 57.7703 10.2 56.5Z" stroke="#646261" stroke-width="0.4"/>
<path d="M-0.800008 56.5C-0.800008 55.2297 0.229737 54.2 1.49999 54.2C2.77025 54.2 3.79999 55.2297 3.79999 56.5C3.79999 57.7703 2.77025 58.8 1.49999 58.8C0.229737 58.8 -0.800008 57.7703 -0.800008 56.5Z" stroke="#646261" stroke-width="0.4"/>
<ellipse cx="111.5" cy="56.5" rx="2.5" ry="2.5" transform="rotate(-180 111.5 56.5)" fill="#FFFDFA"/>
<path d="M120.2 56.5C120.2 55.2297 121.23 54.2 122.5 54.2C123.77 54.2 124.8 55.2297 124.8 56.5C124.8 57.7703 123.77 58.8 122.5 58.8C121.23 58.8 120.2 57.7703 120.2 56.5Z" stroke="#646261" stroke-width="0.4"/>
<path d="M131.2 56.5C131.2 55.2297 132.23 54.2 133.5 54.2C134.77 54.2 135.8 55.2297 135.8 56.5C135.8 57.7703 134.77 58.8 133.5 58.8C132.23 58.8 131.2 57.7703 131.2 56.5Z" stroke="#646261" stroke-width="0.4"/>
<path d="M142.2 56.5C142.2 55.2297 143.23 54.2 144.5 54.2C145.77 54.2 146.8 55.2297 146.8 56.5C146.8 57.7703 145.77 58.8 144.5 58.8C143.23 58.8 142.2 57.7703 142.2 56.5Z" stroke="#646261" stroke-width="0.4"/>
<path d="M153.2 56.5C153.2 55.2297 154.23 54.2 155.5 54.2C156.77 54.2 157.8 55.2297 157.8 56.5C157.8 57.7703 156.77 58.8 155.5 58.8C154.23 58.8 153.2 57.7703 153.2 56.5Z" stroke="#646261" stroke-width="0.4"/>
<ellipse cx="166.5" cy="56.5" rx="2.5" ry="2.5" transform="rotate(-180 166.5 56.5)" fill="#FFFDFA"/>
<path d="M175.2 56.5C175.2 55.2297 176.23 54.2 177.5 54.2C178.77 54.2 179.8 55.2297 179.8 56.5C179.8 57.7703 178.77 58.8 177.5 58.8C176.23 58.8 175.2 57.7703 175.2 56.5Z" stroke="#646261" stroke-width="0.4"/>
<path d="M186.2 56.5C186.2 55.2297 187.23 54.2 188.5 54.2C189.77 54.2 190.8 55.2297 190.8 56.5C190.8 57.7703 189.77 58.8 188.5 58.8C187.23 58.8 186.2 57.7703 186.2 56.5Z" stroke="#646261" stroke-width="0.4"/>
</g>
</svg>
