<svg width="196" height="58" viewBox="0 0 196 58" fill="none" xmlns="http://www.w3.org/2000/svg">
<rect width="196" height="58" rx="5" fill="#1D2023"/>
<path d="M129.884 37.24C128.556 37.24 127.284 36.976 126.068 36.448C124.852 35.904 123.78 35.128 122.852 34.12L124.076 32.848C124.94 33.776 125.86 34.472 126.836 34.936C127.828 35.4 128.868 35.632 129.956 35.632C130.836 35.632 131.612 35.496 132.284 35.224C132.972 34.936 133.508 34.544 133.892 34.048C134.276 33.536 134.468 32.96 134.468 32.32C134.468 31.456 134.164 30.792 133.556 30.328C132.964 29.864 131.98 29.52 130.604 29.296L128.18 28.912C126.564 28.64 125.372 28.16 124.604 27.472C123.836 26.784 123.452 25.848 123.452 24.664C123.452 23.736 123.7 22.92 124.196 22.216C124.692 21.512 125.38 20.968 126.26 20.584C127.156 20.184 128.188 19.984 129.356 19.984C130.54 19.984 131.7 20.176 132.836 20.56C133.988 20.944 135.036 21.496 135.98 22.216L134.924 23.656C133.084 22.264 131.204 21.568 129.284 21.568C128.484 21.568 127.78 21.696 127.172 21.952C126.564 22.192 126.092 22.536 125.756 22.984C125.42 23.416 125.252 23.928 125.252 24.52C125.252 25.304 125.516 25.904 126.044 26.32C126.572 26.736 127.444 27.04 128.66 27.232L131.06 27.616C132.9 27.92 134.236 28.44 135.068 29.176C135.9 29.896 136.316 30.912 136.316 32.224C136.316 33.2 136.044 34.072 135.5 34.84C134.956 35.592 134.196 36.184 133.22 36.616C132.26 37.032 131.148 37.24 129.884 37.24ZM138.643 42.136C138.419 42.136 138.203 42.12 137.995 42.088C137.803 42.072 137.643 42.048 137.515 42.016V40.408C137.787 40.472 138.123 40.504 138.523 40.504C139.579 40.504 140.379 39.88 140.923 38.632L141.643 36.976L136.747 24.976H138.715L142.603 34.84L146.803 24.976H148.723L142.723 38.872C142.387 39.64 142.027 40.264 141.643 40.744C141.259 41.224 140.819 41.576 140.323 41.8C139.843 42.024 139.283 42.136 138.643 42.136ZM150.373 37V24.976H152.149V26.392C153.093 25.288 154.357 24.736 155.941 24.736C156.853 24.736 157.653 24.936 158.341 25.336C159.045 25.72 159.589 26.264 159.973 26.968C160.373 27.656 160.573 28.464 160.573 29.392V37H158.821V29.752C158.821 28.68 158.517 27.84 157.909 27.232C157.317 26.608 156.501 26.296 155.461 26.296C154.741 26.296 154.101 26.456 153.541 26.776C152.981 27.096 152.517 27.552 152.149 28.144V37H150.373ZM169.113 37.216C167.977 37.216 166.945 36.944 166.017 36.4C165.089 35.84 164.353 35.088 163.809 34.144C163.265 33.2 162.993 32.144 162.993 30.976C162.993 29.808 163.265 28.76 163.809 27.832C164.353 26.888 165.089 26.136 166.017 25.576C166.945 25.016 167.977 24.736 169.113 24.736C169.993 24.736 170.841 24.904 171.657 25.24C172.473 25.56 173.193 26.024 173.817 26.632L172.689 27.928C172.209 27.416 171.657 27.032 171.033 26.776C170.425 26.504 169.793 26.368 169.137 26.368C168.321 26.368 167.577 26.576 166.905 26.992C166.249 27.392 165.721 27.944 165.321 28.648C164.937 29.336 164.745 30.112 164.745 30.976C164.745 31.84 164.937 32.624 165.321 33.328C165.721 34.032 166.257 34.592 166.929 35.008C167.601 35.408 168.345 35.608 169.161 35.608C169.817 35.608 170.433 35.48 171.009 35.224C171.601 34.968 172.153 34.592 172.665 34.096L173.769 35.296C173.129 35.904 172.409 36.376 171.609 36.712C170.809 37.048 169.977 37.216 169.113 37.216Z" fill="#FFFDFA"/>
<path d="M24.7236 16H104.045V42H24.7236V16Z" fill="#368CDC" fill-opacity="0.34"/>
<path d="M37.6965 37.216C36.4645 37.216 35.5205 36.936 34.8645 36.376C34.2245 35.8 33.9045 34.96 33.9045 33.856V26.92H31.3125V24.712H33.9045V21.568L36.5205 20.968V24.712H40.0965V26.92H36.5205V33.28C36.5205 33.888 36.6565 34.32 36.9285 34.576C37.2005 34.832 37.6565 34.96 38.2965 34.96C38.6165 34.96 38.9045 34.944 39.1605 34.912C39.4325 34.864 39.7285 34.784 40.0485 34.672V36.88C39.7285 36.992 39.3445 37.072 38.8965 37.12C38.4485 37.184 38.0485 37.216 37.6965 37.216ZM47.5755 37.216C46.3755 37.216 45.2795 36.936 44.2875 36.376C43.3115 35.816 42.5355 35.056 41.9595 34.096C41.3835 33.12 41.0955 32.04 41.0955 30.856C41.0955 29.672 41.3675 28.6 41.9115 27.64C42.4715 26.68 43.2235 25.92 44.1675 25.36C45.1115 24.784 46.1595 24.496 47.3115 24.496C48.4475 24.496 49.4635 24.784 50.3595 25.36C51.2715 25.936 51.9835 26.712 52.4955 27.688C53.0235 28.664 53.2875 29.768 53.2875 31V31.72H43.7595C43.8875 32.344 44.1275 32.904 44.4795 33.4C44.8475 33.896 45.3115 34.288 45.8715 34.576C46.4315 34.848 47.0395 34.984 47.6955 34.984C48.2875 34.984 48.8475 34.896 49.3755 34.72C49.9035 34.544 50.3515 34.288 50.7195 33.952L52.3995 35.56C51.6795 36.136 50.9275 36.56 50.1435 36.832C49.3755 37.088 48.5195 37.216 47.5755 37.216ZM43.7595 29.776H50.6955C50.5835 29.184 50.3595 28.656 50.0235 28.192C49.7035 27.728 49.3035 27.368 48.8235 27.112C48.3435 26.84 47.8235 26.704 47.2635 26.704C46.6715 26.704 46.1275 26.832 45.6315 27.088C45.1515 27.344 44.7435 27.704 44.4075 28.168C44.0875 28.632 43.8715 29.168 43.7595 29.776ZM55.4997 37V20.2L58.1157 19.72V37H55.4997ZM60.8903 37V20.2L63.5063 19.72V37H60.8903ZM71.1289 37.24C70.0889 37.24 69.2889 36.992 68.7289 36.496C68.1689 36 67.8889 35.28 67.8889 34.336V26.488H65.2969V24.976H67.8889V21.928L69.6409 21.472V24.976H73.2649V26.488H69.6409V33.88C69.6409 34.52 69.7849 34.984 70.0729 35.272C70.3609 35.544 70.8329 35.68 71.4889 35.68C71.8249 35.68 72.1209 35.656 72.3769 35.608C72.6489 35.56 72.9369 35.48 73.2409 35.368V36.928C72.9369 37.04 72.5929 37.12 72.2089 37.168C71.8409 37.216 71.4809 37.24 71.1289 37.24ZM78.9585 37.216C78.0785 37.216 77.3025 37.064 76.6305 36.76C75.9745 36.456 75.4545 36.032 75.0705 35.488C74.7025 34.944 74.5185 34.312 74.5185 33.592C74.5185 32.456 74.9505 31.56 75.8145 30.904C76.6785 30.248 77.8465 29.92 79.3185 29.92C80.6145 29.92 81.7905 30.192 82.8465 30.736V29.152C82.8465 28.192 82.5745 27.472 82.0305 26.992C81.4865 26.496 80.6945 26.248 79.6545 26.248C79.0625 26.248 78.4625 26.336 77.8545 26.512C77.2625 26.672 76.6065 26.936 75.8865 27.304L75.2145 25.936C76.0785 25.52 76.8785 25.216 77.6145 25.024C78.3505 24.832 79.0865 24.736 79.8225 24.736C81.3425 24.736 82.5105 25.096 83.3265 25.816C84.1585 26.536 84.5745 27.568 84.5745 28.912V37H82.8465V35.824C82.3025 36.288 81.7025 36.64 81.0465 36.88C80.4065 37.104 79.7105 37.216 78.9585 37.216ZM76.2225 33.544C76.2225 34.216 76.5025 34.768 77.0625 35.2C77.6385 35.616 78.3745 35.824 79.2705 35.824C79.9905 35.824 80.6465 35.712 81.2385 35.488C81.8305 35.264 82.3665 34.912 82.8465 34.432V32.176C82.3505 31.84 81.8225 31.6 81.2625 31.456C80.7025 31.296 80.0705 31.216 79.3665 31.216C78.4065 31.216 77.6385 31.432 77.0625 31.864C76.5025 32.28 76.2225 32.84 76.2225 33.544ZM87.5415 37V24.976H89.3175V37H87.5415ZM88.4295 22.672C88.1095 22.672 87.8295 22.552 87.5895 22.312C87.3495 22.072 87.2295 21.792 87.2295 21.472C87.2295 21.136 87.3495 20.856 87.5895 20.632C87.8295 20.392 88.1095 20.272 88.4295 20.272C88.7655 20.272 89.0455 20.392 89.2695 20.632C89.5095 20.856 89.6295 21.136 89.6295 21.472C89.6295 21.792 89.5095 22.072 89.2695 22.312C89.0455 22.552 88.7655 22.672 88.4295 22.672ZM92.3462 37V20.2L94.1222 19.792V37H92.3462Z" fill="#E7EAF2"/>
<rect x="24.7236" y="43" width="1.03015" height="29" rx="0.515075" transform="rotate(-180 24.7236 43)" fill="#5896F4"/>
<ellipse cx="24.2085" cy="12.5" rx="2.57538" ry="2.5" transform="rotate(-180 24.2085 12.5)" fill="#5896F4"/>
<rect x="103.015" y="15" width="1.03015" height="29" rx="0.515075" fill="#5896F4"/>
<ellipse cx="103.53" cy="45.5" rx="2.57538" ry="2.5" fill="#5896F4"/>
<mask id="mask0_8_101" style="mask-type:alpha" maskUnits="userSpaceOnUse" x="0" y="0" width="196" height="58">
<rect width="196" height="58" rx="5" fill="#1D2023"/>
</mask>
<g mask="url(#mask0_8_101)">
<path d="M10.5015 34.5C10.5015 33.2353 11.5594 32.2 12.8769 32.2C14.1944 32.2 15.2523 33.2353 15.2523 34.5C15.2523 35.7647 14.1944 36.8 12.8769 36.8C11.5594 36.8 10.5015 35.7647 10.5015 34.5Z" stroke="#646261" stroke-width="0.4"/>
<path d="M-0.830148 34.5C-0.830148 33.2353 0.227703 32.2 1.54523 32.2C2.86276 32.2 3.92061 33.2353 3.92061 34.5C3.92061 35.7647 2.86275 36.8 1.54523 36.8C0.227702 36.8 -0.830149 35.7647 -0.830148 34.5Z" stroke="#646261" stroke-width="0.4"/>
<path d="M112.486 34.5C112.486 33.2353 113.544 32.2 114.862 32.2C116.179 32.2 117.237 33.2353 117.237 34.5C117.237 35.7647 116.179 36.8 114.862 36.8C113.544 36.8 112.486 35.7647 112.486 34.5Z" stroke="#646261" stroke-width="0.4"/>
<path d="M180.476 33.5C180.476 32.2353 181.534 31.2 182.852 31.2C184.169 31.2 185.227 32.2353 185.227 33.5C185.227 34.7647 184.169 35.8 182.852 35.8C181.534 35.8 180.476 34.7647 180.476 33.5Z" stroke="#646261" stroke-width="0.4"/>
<path d="M191.808 33.5C191.808 32.2353 192.866 31.2 194.183 31.2C195.501 31.2 196.559 32.2353 196.559 33.5C196.559 34.7647 195.501 35.8 194.183 35.8C192.866 35.8 191.808 34.7647 191.808 33.5Z" stroke="#646261" stroke-width="0.4"/>
<ellipse cx="12.8769" cy="23.5" rx="2.57538" ry="2.5" transform="rotate(-180 12.8769 23.5)" fill="#FFFDFA"/>
<path d="M-0.830148 23.5C-0.830148 22.2353 0.227703 21.2 1.54523 21.2C2.86276 21.2 3.92061 22.2353 3.92061 23.5C3.92061 24.7647 2.86275 25.8 1.54523 25.8C0.227702 25.8 -0.830149 24.7647 -0.830148 23.5Z" stroke="#646261" stroke-width="0.4"/>
<ellipse cx="114.862" cy="23.5" rx="2.57538" ry="2.5" transform="rotate(-180 114.862 23.5)" fill="#FFFDFA"/>
<path d="M180.476 23.5C180.476 22.2353 181.534 21.2 182.852 21.2C184.169 21.2 185.227 22.2353 185.227 23.5C185.227 24.7647 184.169 25.8 182.852 25.8C181.534 25.8 180.476 24.7647 180.476 23.5Z" stroke="#646261" stroke-width="0.4"/>
<path d="M191.808 23.5C191.808 22.2353 192.866 21.2 194.183 21.2C195.501 21.2 196.559 22.2353 196.559 23.5C196.559 24.7647 195.501 25.8 194.183 25.8C192.866 25.8 191.808 24.7647 191.808 23.5Z" stroke="#646261" stroke-width="0.4"/>
<path d="M101.155 12.5C101.155 11.2353 102.213 10.2 103.53 10.2C104.848 10.2 105.906 11.2353 105.906 12.5C105.906 13.7647 104.848 14.8 103.53 14.8C102.213 14.8 101.155 13.7647 101.155 12.5Z" stroke="#646261" stroke-width="0.4"/>
<path d="M89.8231 12.5C89.8231 11.2353 90.881 10.2 92.1985 10.2C93.516 10.2 94.5739 11.2353 94.5739 12.5C94.5739 13.7647 93.516 14.8 92.1985 14.8C90.881 14.8 89.8231 13.7647 89.8231 12.5Z" stroke="#646261" stroke-width="0.4"/>
<path d="M78.4915 12.5C78.4915 11.2353 79.5493 10.2 80.8668 10.2C82.1844 10.2 83.2422 11.2353 83.2422 12.5C83.2422 13.7647 82.1844 14.8 80.8668 14.8C79.5493 14.8 78.4915 13.7647 78.4915 12.5Z" stroke="#646261" stroke-width="0.4"/>
<path d="M67.1598 12.5C67.1598 11.2353 68.2176 10.2 69.5352 10.2C70.8527 10.2 71.9106 11.2353 71.9106 12.5C71.9106 13.7647 70.8527 14.8 69.5352 14.8C68.2176 14.8 67.1598 13.7647 67.1598 12.5Z" stroke="#646261" stroke-width="0.4"/>
<path d="M55.8281 12.5C55.8281 11.2353 56.886 10.2 58.2035 10.2C59.521 10.2 60.5789 11.2353 60.5789 12.5C60.5789 13.7647 59.521 14.8 58.2035 14.8C56.886 14.8 55.8281 13.7647 55.8281 12.5Z" stroke="#646261" stroke-width="0.4"/>
<ellipse cx="46.8719" cy="12.5" rx="2.57538" ry="2.5" transform="rotate(-180 46.8719 12.5)" fill="#FFFDFA"/>
<path d="M33.1648 12.5C33.1648 11.2353 34.2227 10.2 35.5402 10.2C36.8577 10.2 37.9156 11.2353 37.9156 12.5C37.9156 13.7647 36.8577 14.8 35.5402 14.8C34.2227 14.8 33.1648 13.7647 33.1648 12.5Z" stroke="#646261" stroke-width="0.4"/>
<path d="M10.5015 12.5C10.5015 11.2353 11.5594 10.2 12.8769 10.2C14.1944 10.2 15.2523 11.2353 15.2523 12.5C15.2523 13.7647 14.1944 14.8 12.8769 14.8C11.5594 14.8 10.5015 13.7647 10.5015 12.5Z" stroke="#646261" stroke-width="0.4"/>
<path d="M-0.830148 12.5C-0.830148 11.2353 0.227703 10.2 1.54523 10.2C2.86276 10.2 3.92061 11.2353 3.92061 12.5C3.92061 13.7647 2.86275 14.8 1.54523 14.8C0.227702 14.8 -0.830149 13.7647 -0.830148 12.5Z" stroke="#646261" stroke-width="0.4"/>
<path d="M112.486 12.5C112.486 11.2353 113.544 10.2 114.862 10.2C116.179 10.2 117.237 11.2353 117.237 12.5C117.237 13.7647 116.179 14.8 114.862 14.8C113.544 14.8 112.486 13.7647 112.486 12.5Z" stroke="#646261" stroke-width="0.4"/>
<path d="M123.818 12.5C123.818 11.2353 124.876 10.2 126.193 10.2C127.511 10.2 128.569 11.2353 128.569 12.5C128.569 13.7647 127.511 14.8 126.193 14.8C124.876 14.8 123.818 13.7647 123.818 12.5Z" stroke="#646261" stroke-width="0.4"/>
<path d="M135.15 12.5C135.15 11.2353 136.208 10.2 137.525 10.2C138.843 10.2 139.9 11.2353 139.9 12.5C139.9 13.7647 138.843 14.8 137.525 14.8C136.208 14.8 135.15 13.7647 135.15 12.5Z" stroke="#646261" stroke-width="0.4"/>
<ellipse cx="148.857" cy="12.5" rx="2.57538" ry="2.5" transform="rotate(-180 148.857 12.5)" fill="#FFFDFA"/>
<path d="M157.813 12.5C157.813 11.2353 158.871 10.2 160.188 10.2C161.506 10.2 162.564 11.2353 162.564 12.5C162.564 13.7647 161.506 14.8 160.188 14.8C158.871 14.8 157.813 13.7647 157.813 12.5Z" stroke="#646261" stroke-width="0.4"/>
<path d="M169.145 12.5C169.145 11.2353 170.203 10.2 171.52 10.2C172.838 10.2 173.895 11.2353 173.895 12.5C173.895 13.7647 172.838 14.8 171.52 14.8C170.203 14.8 169.145 13.7647 169.145 12.5Z" stroke="#646261" stroke-width="0.4"/>
<path d="M180.476 12.5C180.476 11.2353 181.534 10.2 182.852 10.2C184.169 10.2 185.227 11.2353 185.227 12.5C185.227 13.7647 184.169 14.8 182.852 14.8C181.534 14.8 180.476 13.7647 180.476 12.5Z" stroke="#646261" stroke-width="0.4"/>
<ellipse cx="194.183" cy="12.5" rx="2.57538" ry="2.5" transform="rotate(-180 194.183 12.5)" fill="#FFFDFA"/>
<ellipse cx="103.53" cy="1.5" rx="2.57538" ry="2.5" transform="rotate(-180 103.53 1.5)" fill="#FFFDFA"/>
<path d="M89.8231 1.5C89.8231 0.235303 90.881 -0.800001 92.1985 -0.8C93.516 -0.8 94.5739 0.235304 94.5739 1.5C94.5739 2.7647 93.516 3.8 92.1985 3.8C90.881 3.8 89.8231 2.7647 89.8231 1.5Z" stroke="#646261" stroke-width="0.4"/>
<path d="M78.4915 1.5C78.4915 0.235303 79.5493 -0.800001 80.8668 -0.8C82.1844 -0.8 83.2422 0.235304 83.2422 1.5C83.2422 2.7647 82.1844 3.8 80.8668 3.8C79.5493 3.8 78.4915 2.7647 78.4915 1.5Z" stroke="#646261" stroke-width="0.4"/>
<path d="M67.1598 1.5C67.1598 0.235303 68.2176 -0.800001 69.5352 -0.8C70.8527 -0.8 71.9106 0.235304 71.9106 1.5C71.9106 2.7647 70.8527 3.8 69.5352 3.8C68.2176 3.8 67.1598 2.7647 67.1598 1.5Z" stroke="#646261" stroke-width="0.4"/>
<path d="M55.8281 1.5C55.8281 0.235303 56.886 -0.800001 58.2035 -0.8C59.521 -0.8 60.5789 0.235304 60.5789 1.5C60.5789 2.7647 59.521 3.8 58.2035 3.8C56.886 3.8 55.8281 2.7647 55.8281 1.5Z" stroke="#646261" stroke-width="0.4"/>
<path d="M44.4965 1.5C44.4965 0.235303 45.5543 -0.800001 46.8719 -0.8C48.1894 -0.8 49.2472 0.235304 49.2472 1.5C49.2472 2.7647 48.1894 3.8 46.8719 3.8C45.5543 3.8 44.4965 2.7647 44.4965 1.5Z" stroke="#646261" stroke-width="0.4"/>
<path d="M33.1648 1.5C33.1648 0.235303 34.2227 -0.800001 35.5402 -0.8C36.8577 -0.8 37.9156 0.235304 37.9156 1.5C37.9156 2.7647 36.8577 3.8 35.5402 3.8C34.2227 3.8 33.1648 2.7647 33.1648 1.5Z" stroke="#646261" stroke-width="0.4"/>
<path d="M21.8332 1.5C21.8332 0.235303 22.891 -0.800001 24.2085 -0.8C25.5261 -0.8 26.5839 0.235304 26.5839 1.5C26.5839 2.7647 25.5261 3.8 24.2085 3.8C22.891 3.8 21.8332 2.7647 21.8332 1.5Z" stroke="#646261" stroke-width="0.4"/>
<ellipse cx="12.8769" cy="1.5" rx="2.57538" ry="2.5" transform="rotate(-180 12.8769 1.5)" fill="#FFFDFA"/>
<path d="M-0.830148 1.5C-0.830148 0.235303 0.227703 -0.800001 1.54523 -0.8C2.86276 -0.8 3.92061 0.235304 3.92061 1.5C3.92061 2.7647 2.86275 3.8 1.54523 3.8C0.227702 3.8 -0.830149 2.7647 -0.830148 1.5Z" stroke="#646261" stroke-width="0.4"/>
<path d="M112.486 1.5C112.486 0.235303 113.544 -0.800001 114.862 -0.8C116.179 -0.8 117.237 0.235304 117.237 1.5C117.237 2.7647 116.179 3.8 114.862 3.8C113.544 3.8 112.486 2.7647 112.486 1.5Z" stroke="#646261" stroke-width="0.4"/>
<path d="M123.818 1.5C123.818 0.235303 124.876 -0.800001 126.193 -0.8C127.511 -0.8 128.569 0.235304 128.569 1.5C128.569 2.7647 127.511 3.8 126.193 3.8C124.876 3.8 123.818 2.7647 123.818 1.5Z" stroke="#646261" stroke-width="0.4"/>
<path d="M135.15 1.5C135.15 0.235303 136.208 -0.800001 137.525 -0.8C138.843 -0.8 139.9 0.235304 139.9 1.5C139.9 2.7647 138.843 3.8 137.525 3.8C136.208 3.8 135.15 2.7647 135.15 1.5Z" stroke="#646261" stroke-width="0.4"/>
<path d="M146.481 1.5C146.481 0.235303 147.539 -0.800001 148.857 -0.8C150.174 -0.8 151.232 0.235304 151.232 1.5C151.232 2.7647 150.174 3.8 148.857 3.8C147.539 3.8 146.481 2.7647 146.481 1.5Z" stroke="#646261" stroke-width="0.4"/>
<path d="M157.813 1.5C157.813 0.235303 158.871 -0.800001 160.188 -0.8C161.506 -0.8 162.564 0.235304 162.564 1.5C162.564 2.7647 161.506 3.8 160.188 3.8C158.871 3.8 157.813 2.7647 157.813 1.5Z" stroke="#646261" stroke-width="0.4"/>
<path d="M169.145 1.5C169.145 0.235303 170.203 -0.800001 171.52 -0.8C172.838 -0.8 173.895 0.235304 173.895 1.5C173.895 2.7647 172.838 3.8 171.52 3.8C170.203 3.8 169.145 2.7647 169.145 1.5Z" stroke="#646261" stroke-width="0.4"/>
<ellipse cx="182.852" cy="1.5" rx="2.57538" ry="2.5" transform="rotate(-180 182.852 1.5)" fill="#FFFDFA"/>
<path d="M191.808 1.5C191.808 0.235303 192.866 -0.800001 194.183 -0.8C195.501 -0.8 196.559 0.235304 196.559 1.5C196.559 2.7647 195.501 3.8 194.183 3.8C192.866 3.8 191.808 2.7647 191.808 1.5Z" stroke="#646261" stroke-width="0.4"/>
<path d="M89.8231 45.5C89.8231 44.2353 90.881 43.2 92.1985 43.2C93.516 43.2 94.5739 44.2353 94.5739 45.5C94.5739 46.7647 93.516 47.8 92.1985 47.8C90.881 47.8 89.8231 46.7647 89.8231 45.5Z" stroke="#646261" stroke-width="0.4"/>
<path d="M78.4915 45.5C78.4915 44.2353 79.5493 43.2 80.8668 43.2C82.1844 43.2 83.2422 44.2353 83.2422 45.5C83.2422 46.7647 82.1844 47.8 80.8668 47.8C79.5493 47.8 78.4915 46.7647 78.4915 45.5Z" stroke="#646261" stroke-width="0.4"/>
<path d="M67.1598 45.5C67.1598 44.2353 68.2176 43.2 69.5352 43.2C70.8527 43.2 71.9106 44.2353 71.9106 45.5C71.9106 46.7647 70.8527 47.8 69.5352 47.8C68.2176 47.8 67.1598 46.7647 67.1598 45.5Z" stroke="#646261" stroke-width="0.4"/>
<path d="M55.8281 45.5C55.8281 44.2353 56.886 43.2 58.2035 43.2C59.521 43.2 60.5789 44.2353 60.5789 45.5C60.5789 46.7647 59.521 47.8 58.2035 47.8C56.886 47.8 55.8281 46.7647 55.8281 45.5Z" stroke="#646261" stroke-width="0.4"/>
<path d="M44.4965 45.5C44.4965 44.2353 45.5543 43.2 46.8719 43.2C48.1894 43.2 49.2472 44.2353 49.2472 45.5C49.2472 46.7647 48.1894 47.8 46.8719 47.8C45.5543 47.8 44.4965 46.7647 44.4965 45.5Z" stroke="#646261" stroke-width="0.4"/>
<path d="M33.1648 45.5C33.1648 44.2353 34.2227 43.2 35.5402 43.2C36.8577 43.2 37.9156 44.2353 37.9156 45.5C37.9156 46.7647 36.8577 47.8 35.5402 47.8C34.2227 47.8 33.1648 46.7647 33.1648 45.5Z" stroke="#646261" stroke-width="0.4"/>
<path d="M21.8332 45.5C21.8332 44.2353 22.891 43.2 24.2085 43.2C25.5261 43.2 26.5839 44.2353 26.5839 45.5C26.5839 46.7647 25.5261 47.8 24.2085 47.8C22.891 47.8 21.8332 46.7647 21.8332 45.5Z" stroke="#646261" stroke-width="0.4"/>
<path d="M10.5015 45.5C10.5015 44.2353 11.5594 43.2 12.8769 43.2C14.1944 43.2 15.2523 44.2353 15.2523 45.5C15.2523 46.7647 14.1944 47.8 12.8769 47.8C11.5594 47.8 10.5015 46.7647 10.5015 45.5Z" stroke="#646261" stroke-width="0.4"/>
<ellipse cx="1.54523" cy="45.5" rx="2.57538" ry="2.5" transform="rotate(-180 1.54523 45.5)" fill="#FFFDFA"/>
<path d="M112.486 45.5C112.486 44.2353 113.544 43.2 114.862 43.2C116.179 43.2 117.237 44.2353 117.237 45.5C117.237 46.7647 116.179 47.8 114.862 47.8C113.544 47.8 112.486 46.7647 112.486 45.5Z" stroke="#646261" stroke-width="0.4"/>
<path d="M123.818 45.5C123.818 44.2353 124.876 43.2 126.193 43.2C127.511 43.2 128.569 44.2353 128.569 45.5C128.569 46.7647 127.511 47.8 126.193 47.8C124.876 47.8 123.818 46.7647 123.818 45.5Z" stroke="#646261" stroke-width="0.4"/>
<path d="M135.15 45.5C135.15 44.2353 136.208 43.2 137.525 43.2C138.843 43.2 139.9 44.2353 139.9 45.5C139.9 46.7647 138.843 47.8 137.525 47.8C136.208 47.8 135.15 46.7647 135.15 45.5Z" stroke="#646261" stroke-width="0.4"/>
<path d="M146.481 45.5C146.481 44.2353 147.539 43.2 148.857 43.2C150.174 43.2 151.232 44.2353 151.232 45.5C151.232 46.7647 150.174 47.8 148.857 47.8C147.539 47.8 146.481 46.7647 146.481 45.5Z" stroke="#646261" stroke-width="0.4"/>
<path d="M157.813 45.5C157.813 44.2353 158.871 43.2 160.188 43.2C161.506 43.2 162.564 44.2353 162.564 45.5C162.564 46.7647 161.506 47.8 160.188 47.8C158.871 47.8 157.813 46.7647 157.813 45.5Z" stroke="#646261" stroke-width="0.4"/>
<path d="M169.145 45.5C169.145 44.2353 170.203 43.2 171.52 43.2C172.838 43.2 173.895 44.2353 173.895 45.5C173.895 46.7647 172.838 47.8 171.52 47.8C170.203 47.8 169.145 46.7647 169.145 45.5Z" stroke="#646261" stroke-width="0.4"/>
<path d="M180.476 45.5C180.476 44.2353 181.534 43.2 182.852 43.2C184.169 43.2 185.227 44.2353 185.227 45.5C185.227 46.7647 184.169 47.8 182.852 47.8C181.534 47.8 180.476 46.7647 180.476 45.5Z" stroke="#646261" stroke-width="0.4"/>
<ellipse cx="194.183" cy="45.5" rx="2.57538" ry="2.5" transform="rotate(-180 194.183 45.5)" fill="#FFFDFA"/>
<path d="M101.155 56.5C101.155 55.2353 102.213 54.2 103.53 54.2C104.848 54.2 105.906 55.2353 105.906 56.5C105.906 57.7647 104.848 58.8 103.53 58.8C102.213 58.8 101.155 57.7647 101.155 56.5Z" stroke="#646261" stroke-width="0.4"/>
<path d="M89.8231 56.5C89.8231 55.2353 90.881 54.2 92.1985 54.2C93.516 54.2 94.5739 55.2353 94.5739 56.5C94.5739 57.7647 93.516 58.8 92.1985 58.8C90.881 58.8 89.8231 57.7647 89.8231 56.5Z" stroke="#646261" stroke-width="0.4"/>
<path d="M78.4915 56.5C78.4915 55.2353 79.5493 54.2 80.8668 54.2C82.1844 54.2 83.2422 55.2353 83.2422 56.5C83.2422 57.7647 82.1844 58.8 80.8668 58.8C79.5493 58.8 78.4915 57.7647 78.4915 56.5Z" stroke="#646261" stroke-width="0.4"/>
<ellipse cx="69.5352" cy="56.5" rx="2.57538" ry="2.5" transform="rotate(-180 69.5352 56.5)" fill="#FFFDFA"/>
<path d="M55.8281 56.5C55.8281 55.2353 56.886 54.2 58.2035 54.2C59.521 54.2 60.5789 55.2353 60.5789 56.5C60.5789 57.7647 59.521 58.8 58.2035 58.8C56.886 58.8 55.8281 57.7647 55.8281 56.5Z" stroke="#646261" stroke-width="0.4"/>
<path d="M44.4965 56.5C44.4965 55.2353 45.5543 54.2 46.8719 54.2C48.1894 54.2 49.2472 55.2353 49.2472 56.5C49.2472 57.7647 48.1894 58.8 46.8719 58.8C45.5543 58.8 44.4965 57.7647 44.4965 56.5Z" stroke="#646261" stroke-width="0.4"/>
<path d="M33.1648 56.5C33.1648 55.2353 34.2227 54.2 35.5402 54.2C36.8577 54.2 37.9156 55.2353 37.9156 56.5C37.9156 57.7647 36.8577 58.8 35.5402 58.8C34.2227 58.8 33.1648 57.7647 33.1648 56.5Z" stroke="#646261" stroke-width="0.4"/>
<path d="M21.8332 56.5C21.8332 55.2353 22.891 54.2 24.2085 54.2C25.5261 54.2 26.5839 55.2353 26.5839 56.5C26.5839 57.7647 25.5261 58.8 24.2085 58.8C22.891 58.8 21.8332 57.7647 21.8332 56.5Z" stroke="#646261" stroke-width="0.4"/>
<path d="M10.5015 56.5C10.5015 55.2353 11.5594 54.2 12.8769 54.2C14.1944 54.2 15.2523 55.2353 15.2523 56.5C15.2523 57.7647 14.1944 58.8 12.8769 58.8C11.5594 58.8 10.5015 57.7647 10.5015 56.5Z" stroke="#646261" stroke-width="0.4"/>
<path d="M-0.830148 56.5C-0.830148 55.2353 0.227703 54.2 1.54523 54.2C2.86276 54.2 3.92061 55.2353 3.92061 56.5C3.92061 57.7647 2.86275 58.8 1.54523 58.8C0.227702 58.8 -0.830149 57.7647 -0.830148 56.5Z" stroke="#646261" stroke-width="0.4"/>
<ellipse cx="114.862" cy="56.5" rx="2.57538" ry="2.5" transform="rotate(-180 114.862 56.5)" fill="#FFFDFA"/>
<path d="M123.818 56.5C123.818 55.2353 124.876 54.2 126.193 54.2C127.511 54.2 128.569 55.2353 128.569 56.5C128.569 57.7647 127.511 58.8 126.193 58.8C124.876 58.8 123.818 57.7647 123.818 56.5Z" stroke="#646261" stroke-width="0.4"/>
<path d="M135.15 56.5C135.15 55.2353 136.208 54.2 137.525 54.2C138.843 54.2 139.9 55.2353 139.9 56.5C139.9 57.7647 138.843 58.8 137.525 58.8C136.208 58.8 135.15 57.7647 135.15 56.5Z" stroke="#646261" stroke-width="0.4"/>
<path d="M146.481 56.5C146.481 55.2353 147.539 54.2 148.857 54.2C150.174 54.2 151.232 55.2353 151.232 56.5C151.232 57.7647 150.174 58.8 148.857 58.8C147.539 58.8 146.481 57.7647 146.481 56.5Z" stroke="#646261" stroke-width="0.4"/>
<path d="M157.813 56.5C157.813 55.2353 158.871 54.2 160.188 54.2C161.506 54.2 162.564 55.2353 162.564 56.5C162.564 57.7647 161.506 58.8 160.188 58.8C158.871 58.8 157.813 57.7647 157.813 56.5Z" stroke="#646261" stroke-width="0.4"/>
<ellipse cx="171.52" cy="56.5" rx="2.57538" ry="2.5" transform="rotate(-180 171.52 56.5)" fill="#FFFDFA"/>
<path d="M180.476 56.5C180.476 55.2353 181.534 54.2 182.852 54.2C184.169 54.2 185.227 55.2353 185.227 56.5C185.227 57.7647 184.169 58.8 182.852 58.8C181.534 58.8 180.476 57.7647 180.476 56.5Z" stroke="#646261" stroke-width="0.4"/>
<path d="M191.808 56.5C191.808 55.2353 192.866 54.2 194.183 54.2C195.501 54.2 196.559 55.2353 196.559 56.5C196.559 57.7647 195.501 58.8 194.183 58.8C192.866 58.8 191.808 57.7647 191.808 56.5Z" stroke="#646261" stroke-width="0.4"/>
</g>
</svg>
